{
  "cells": [
    {
      "cell_type": "markdown",
      "id": "9ea855a0",
      "metadata": {},
      "source": [
        "# Old Text-to-Speech (TTS) Systems"
      ]
    },
    {
      "cell_type": "code",
      "execution_count": 1,
      "id": "2c970a94",
      "metadata": {},
      "outputs": [],
      "source": [
        "import pyttsx3\n",
        "\n",
        "# Initialize\n",
        "engine = pyttsx3.init()\n",
        "\n",
        "# Configure voice properties\n",
        "engine.setProperty('rate', 150)    # Speed\n",
        "engine.setProperty('volume', 0.9)  # Volume\n",
        "voices = engine.getProperty('voices')\n",
        "engine.setProperty('voice', voices[1].id)  # Female voice\n",
        "\n",
        "# Speak\n",
        "text = \"Hello! I am a computer speaking to you.\"\n",
        "engine.say(text)\n",
        "engine.runAndWait()\n",
        "\n",
        "# Try different rates, volumes, voices!"
      ]
    },
    {
      "cell_type": "markdown",
      "id": "793477c8",
      "metadata": {},
      "source": [
        "# New Text-to-Speech (TTS) Systems"
      ]
    },
    {
      "cell_type": "code",
      "execution_count": 2,
      "id": "f86fbccd",
      "metadata": {},
      "outputs": [
        {
          "name": "stderr",
          "output_type": "stream",
          "text": [
            "Input #0, wav, from '/tmp/tmp1xaus_u0.wav':   0KB sq=    0B f=0/0   \n",
            "  Duration: 00:00:02.42, bitrate: 384 kb/s\n",
            "  Stream #0:0: Audio: pcm_s16le ([1][0][0][0] / 0x0001), 24000 Hz, 1 channels, s16, 384 kb/s\n",
            "   2.23 M-A:  0.000 fd=   0 aq=    0KB vq=    0KB sq=    0B f=0/0   \r"
          ]
        },
        {
          "name": "stdout",
          "output_type": "stream",
          "text": [
            "\n"
          ]
        },
        {
          "name": "stderr",
          "output_type": "stream",
          "text": [
            "   2.35 M-A: -0.000 fd=   0 aq=    0KB vq=    0KB sq=    0B f=0/0   \r"
          ]
        }
      ],
      "source": [
        "from openai import OpenAI\n",
        "from pydub import AudioSegment\n",
        "from pydub.playback import play\n",
        "import io\n",
        "import os\n",
        "from dotenv import load_dotenv\n",
        "\n",
        "load_dotenv()\n",
        "\n",
        "client = OpenAI(api_key=os.getenv(\"OPENAI_API_KEY\"))\n",
        "\n",
        "# Generate speech\n",
        "response = client.audio.speech.create(\n",
        "    model=\"tts-1\",  # or \"tts-1-hd\" for higher quality\n",
        "    voice=\"alloy\",  # nova, echo, fable, onyx, shimmer\n",
        "    input=\"Hello! This is OpenAI's text to speech.\"\n",
        ")\n",
        "\n",
        "# Play audio directly\n",
        "audio = AudioSegment.from_mp3(io.BytesIO(response.content))\n",
        "play(audio)"
      ]
    },
    {
      "cell_type": "markdown",
      "id": "0e5a7a2f",
      "metadata": {},
      "source": [
        "# What are the available voices?"
      ]
    },
    {
      "cell_type": "code",
      "execution_count": 3,
      "id": "95c9b158",
      "metadata": {},
      "outputs": [
        {
          "name": "stdout",
          "output_type": "stream",
          "text": [
            "Playing: alloy\n"
          ]
        },
        {
          "name": "stderr",
          "output_type": "stream",
          "text": [
            "Input #0, wav, from '/tmp/tmprv3c_rw_.wav':   0KB sq=    0B f=0/0   \n",
            "  Duration: 00:00:04.27, bitrate: 384 kb/s\n",
            "  Stream #0:0: Audio: pcm_s16le ([1][0][0][0] / 0x0001), 24000 Hz, 1 channels, s16, 384 kb/s\n",
            "   4.23 M-A:  0.000 fd=   0 aq=    0KB vq=    0KB sq=    0B f=0/0   \r"
          ]
        },
        {
          "name": "stdout",
          "output_type": "stream",
          "text": [
            "\n",
            "Finished: alloy\n",
            "Playing: echo\n"
          ]
        },
        {
          "name": "stderr",
          "output_type": "stream",
          "text": [
            "Input #0, wav, from '/tmp/tmp0e4qjooh.wav':   0KB sq=    0B f=0/0   \n",
            "  Duration: 00:00:04.30, bitrate: 384 kb/s\n",
            "  Stream #0:0: Audio: pcm_s16le ([1][0][0][0] / 0x0001), 24000 Hz, 1 channels, s16, 384 kb/s\n",
            "   4.21 M-A: -0.000 fd=   0 aq=    0KB vq=    0KB sq=    0B f=0/0   \r"
          ]
        },
        {
          "name": "stdout",
          "output_type": "stream",
          "text": [
            "\n",
            "Finished: echo\n",
            "Playing: fable\n"
          ]
        },
        {
          "name": "stderr",
          "output_type": "stream",
          "text": [
            "Input #0, wav, from '/tmp/tmpxjidni9u.wav':   0KB sq=    0B f=0/0   \n",
            "  Duration: 00:00:04.34, bitrate: 384 kb/s\n",
            "  Stream #0:0: Audio: pcm_s16le ([1][0][0][0] / 0x0001), 24000 Hz, 1 channels, s16, 384 kb/s\n",
            "   4.23 M-A: -0.000 fd=   0 aq=    0KB vq=    0KB sq=    0B f=0/0   \r"
          ]
        },
        {
          "name": "stdout",
          "output_type": "stream",
          "text": [
            "\n",
            "Finished: fable\n",
            "Playing: nova\n"
          ]
        },
        {
          "name": "stderr",
          "output_type": "stream",
          "text": [
            "Input #0, wav, from '/tmp/tmp60bkxejp.wav':   0KB sq=    0B f=0/0   \n",
            "  Duration: 00:00:04.10, bitrate: 384 kb/s\n",
            "  Stream #0:0: Audio: pcm_s16le ([1][0][0][0] / 0x0001), 24000 Hz, 1 channels, s16, 384 kb/s\n",
            "   4.04 M-A: -0.000 fd=   0 aq=    0KB vq=    0KB sq=    0B f=0/0   \r"
          ]
        },
        {
          "name": "stdout",
          "output_type": "stream",
          "text": [
            "\n",
            "Finished: nova\n",
            "Playing: onyx\n"
          ]
        },
        {
          "name": "stderr",
          "output_type": "stream",
          "text": [
            "Input #0, wav, from '/tmp/tmpz0dvsq01.wav':   0KB sq=    0B f=0/0   \n",
            "  Duration: 00:00:04.27, bitrate: 384 kb/s\n",
            "  Stream #0:0: Audio: pcm_s16le ([1][0][0][0] / 0x0001), 24000 Hz, 1 channels, s16, 384 kb/s\n",
            "   4.22 M-A: -0.000 fd=   0 aq=    0KB vq=    0KB sq=    0B f=0/0   \r"
          ]
        },
        {
          "name": "stdout",
          "output_type": "stream",
          "text": [
            "\n",
            "Finished: onyx\n",
            "Playing: shimmer\n"
          ]
        },
        {
          "name": "stderr",
          "output_type": "stream",
          "text": [
            "Input #0, wav, from '/tmp/tmppje5tt9y.wav':   0KB sq=    0B f=0/0   \n",
            "  Duration: 00:00:04.37, bitrate: 384 kb/s\n",
            "  Stream #0:0: Audio: pcm_s16le ([1][0][0][0] / 0x0001), 24000 Hz, 1 channels, s16, 384 kb/s\n",
            "   4.29 M-A:  0.000 fd=   0 aq=    0KB vq=    0KB sq=    0B f=0/0   \r"
          ]
        },
        {
          "name": "stdout",
          "output_type": "stream",
          "text": [
            "\n",
            "Finished: shimmer\n"
          ]
        },
        {
          "name": "stderr",
          "output_type": "stream",
          "text": [
            "   4.32 M-A:  0.000 fd=   0 aq=    0KB vq=    0KB sq=    0B f=0/0   \r"
          ]
        }
      ],
      "source": [
        "from openai import OpenAI\n",
        "from pydub import AudioSegment\n",
        "from pydub.playback import play\n",
        "import io\n",
        "import os\n",
        "from dotenv import load_dotenv\n",
        "\n",
        "load_dotenv()\n",
        "\n",
        "client = OpenAI(api_key=os.getenv(\"OPENAI_API_KEY\"))\n",
        "\n",
        "voices = [\"alloy\", \"echo\", \"fable\", \"nova\", \"onyx\", \"shimmer\"]\n",
        "text = \"The quick brown fox jumps over the lazy dog. How does my voice sound?\"\n",
        "\n",
        "for voice in voices:\n",
        "    response = client.audio.speech.create(\n",
        "        model=\"tts-1-hd\",\n",
        "        voice=voice,\n",
        "        input=text\n",
        "    )\n",
        "    \n",
        "    print(f\"Playing: {voice}\")\n",
        "    \n",
        "    # Play audio directly\n",
        "    audio = AudioSegment.from_mp3(io.BytesIO(response.content))\n",
        "    play(audio)\n",
        "    \n",
        "    print(f\"Finished: {voice}\")"
      ]
    },
    {
      "cell_type": "markdown",
      "id": "f535f459",
      "metadata": {},
      "source": [
        "# Eleven Labs"
      ]
    },
    {
      "cell_type": "code",
      "execution_count": null,
      "id": "f7bda296",
      "metadata": {},
      "outputs": [
        {
          "name": "stderr",
          "output_type": "stream",
          "text": [
            "Input #0, wav, from '/tmp/tmp1xg8crj0.wav':   0KB sq=    0B f=0/0   \n",
            "  Duration: 00:00:02.93, bitrate: 705 kb/s\n",
            "  Stream #0:0: Audio: pcm_s16le ([1][0][0][0] / 0x0001), 44100 Hz, 1 channels, s16, 705 kb/s\n",
            "   1.83 M-A:  0.000 fd=   0 aq=   52KB vq=    0KB sq=    0B f=0/0   \r"
          ]
        }
      ],
      "source": [
        "from pydub import AudioSegment\n",
        "from io import BytesIO\n",
        "\n",
        "from elevenlabs import ElevenLabs\n",
        "\n",
        "from dotenv import load_dotenv\n",
        "load_dotenv()\n",
        "\n",
        "client = ElevenLabs(api_key=os.getenv(\"ELEVEN_LABS_KEY\"))\n",
        "\n",
        "# Generate with pre-made voice (Rachel)\n",
        "audio_generator = client.text_to_speech.convert(\n",
        "    text=\"ElevenLabs creates the most realistic voices\",\n",
        "    voice_id=\"21m00Tcm4TlvDq8ikWAM\",  # Rachel\n",
        "    model_id=\"eleven_multilingual_v2\",\n",
        "    output_format=\"mp3_44100_128\",\n",
        ")\n",
        "\n",
        "# Convert generator to bytes\n",
        "audio_bytes = b\"\".join(audio_generator)\n",
        "\n",
        "# Create AudioSegment and play\n",
        "audio = AudioSegment.from_mp3(BytesIO(audio_bytes))\n",
        "play(audio)\n",
        "\n",
        "\n",
        "\n",
        "audio_generator = client.text_to_speech.convert(\n",
        "    text=\"Fine-tuned emotional speech\",\n",
        "    voice_id=\"21m00Tcm4TlvDq8ikWAM\",  # Rachel\n",
        "    model_id=\"eleven_multilingual_v2\",\n",
        "    output_format=\"mp3_44100_128\",\n",
        "    voice_settings=VoiceSettings(\n",
        "        stability=0.75,\n",
        "        similarity_boost=0.8,\n",
        "        style=0.2,\n",
        "        use_speaker_boost=True\n",
        "    )\n",
        ")\n",
        "\n",
        "# Convert generator to bytes\n",
        "audio_bytes = b\"\".join(audio_generator)\n",
        "\n",
        "# Create AudioSegment and play\n",
        "audio = AudioSegment.from_mp3(BytesIO(audio_bytes))\n",
        "play(audio)"
      ]
    }
  ],
  "metadata": {
    "kernelspec": {
      "display_name": "consulting",
      "language": "python",
      "name": "python3"
    },
    "language_info": {
      "codemirror_mode": {
        "name": "ipython",
        "version": 3
      },
      "file_extension": ".py",
      "mimetype": "text/x-python",
      "name": "python",
      "nbconvert_exporter": "python",
      "pygments_lexer": "ipython3",
      "version": "3.13.0"
    }
  },
  "nbformat": 4,
  "nbformat_minor": 5
}